<?xml version="1.0" encoding="utf-8"?>
<!-- Generator: Adobe Illustrator 26.0.1, SVG Export Plug-In . SVG Version: 6.00 Build 0)  -->
<svg version="1.1" id="Layer_1" xmlns="http://www.w3.org/2000/svg" xmlns:xlink="http://www.w3.org/1999/xlink" x="0px" y="0px"
	 viewBox="0 0 312.96872 312.96872" style="enable-background:new 0 0 312.96872 312.96872;" xml:space="preserve">
<style type="text/css">
	.st0{fill-rule:evenodd;clip-rule:evenodd;fill:url(#Oval_00000131328130983731796000000014510370198314152125_);}
	.st1{fill-rule:evenodd;clip-rule:evenodd;fill:#FFFFFF;}
</style>
<g id="Artboard">
	
		<linearGradient id="Oval_00000098933082998087502060000011539966728125650817_" gradientUnits="userSpaceOnUse" x1="1469.25818" y1="1060.19604" x2="1469.25818" y2="1059.88538" gradientTransform="matrix(1000 0 0 -1000 -1469101.625 1060196)">
		<stop  offset="0" style="stop-color:#2AABEE"/>
		<stop  offset="1" style="stop-color:#229ED9"/>
	</linearGradient>
	
		<circle id="Oval" style="fill-rule:evenodd;clip-rule:evenodd;fill:url(#Oval_00000098933082998087502060000011539966728125650817_);" cx="156.48436" cy="156.48436" r="156.48436"/>
	<path id="Path-3" class="st1" d="M70.83371,154.83253c45.61837-19.87521,76.03777-32.97816,91.25818-39.30885
		c43.45737-18.07542,52.48744-21.21532,58.37309-21.319c1.29451-0.0228,4.18892,0.29801,6.0638,1.81934
		c1.5831,1.28458,2.01866,3.01987,2.22711,4.23779c0.20844,1.21793,0.468,3.99239,0.26166,6.16028
		c-2.35497,24.74387-12.54488,84.79073-17.72894,112.5043c-2.19357,11.72664-6.51276,15.65854-10.69424,16.04332
		c-9.08734,0.83623-15.98784-6.00555-24.78938-11.77505c-13.77266-9.02817-21.55334-14.64821-34.92209-23.45802
		c-15.44991-10.18126-5.43437-15.77705,3.37048-24.92215c2.30428-2.39331,42.34329-38.8119,43.11826-42.11563
		c0.09692-0.41319,0.18687-1.95337-0.72812-2.76663s-2.26543-0.53516-3.23994-0.31398
		c-1.38135,0.31352-23.38335,14.85603-66.00601,43.62753c-6.2452,4.28842-11.9019,6.3779-16.97011,6.26839
		c-5.5873-0.1207-16.33502-3.15913-24.32484-5.75632c-9.79984-3.18553-17.58857-4.86975-16.91034-10.27979
		C59.54552,160.66017,63.426,157.77834,70.83371,154.83253z"/>
</g>
</svg>
