<?xml version="1.0" encoding="utf-8"?>
<!-- Generator: Adobe Illustrator 26.0.1, SVG Export Plug-In . SVG Version: 6.00 Build 0)  -->
<svg version="1.1" id="Layer_1" xmlns="http://www.w3.org/2000/svg" xmlns:xlink="http://www.w3.org/1999/xlink" x="0px" y="0px"
	 viewBox="0 0 312.96872 312.96872" style="enable-background:new 0 0 312.96872 312.96872;" xml:space="preserve">
<style type="text/css">
	.st0{fill:#25D366;}
	.st1{fill:#FFFFFF;}
</style>
<g>
	<path class="st0" d="M266.09109,45.48164C236.81117,16.16755,197.87234,0.01683,156.3857,0
		C70.90523,0,1.33414,69.56628,1.30022,155.07332c-0.01147,27.33359,7.12977,54.01257,20.7013,77.53214L0,312.96872
		l82.21272-21.56607c22.65163,12.35553,48.15533,18.86774,74.11114,18.87653h0.0636c0.00497,0-0.00424,0,0.00049,0
		c85.47176,0,155.04907-69.57326,155.0835-155.08217C311.48764,113.75874,295.37128,74.79467,266.09109,45.48164z
		 M232.25865,210.5022c-3.22961,9.05124-18.71083,17.31259-26.15581,18.42455c-6.67691,0.99823-15.12436,1.41467-24.40746-1.53551
		c-5.62732-1.78551-12.84561-4.16974-22.09081-8.16255c-38.87224-16.78499-64.25923-55.92436-66.19659-58.5114
		c-1.93761-2.5863-15.82286-21.0119-15.82286-40.08606c0-19.07223,10.01051-28.4474,13.56231-32.32718
		c3.55204-3.87897,7.75021-4.84866,10.33344-4.84866c2.58299,0,5.16922,0.024,7.42702,0.13616
		c2.37826,0.12013,5.5727-0.90298,8.71852,6.65192c3.2291,7.75949,10.97857,26.83372,11.94738,28.77314
		c0.96906,1.93935,1.61467,4.20184,0.32318,6.78888c-1.29199,2.58448-1.93761,4.20185-3.87498,6.4642
		c-1.93761,2.2625-4.06949,5.05234-5.81284,6.78896c-1.93986,1.93231-3.95927,4.02921-1.69897,7.90813
		c2.26055,3.87978,10.03745,16.56897,21.5574,26.84431c14.80093,13.20239,27.2867,17.29396,31.16193,19.23344
		c3.87448,1.94035,6.13528,1.61554,8.39484-0.96974c2.26105-2.58611,9.68732-11.31554,12.27031-15.19444
		c2.58324-3.87798,5.16672-3.23204,8.71826-1.93924c3.55255,1.29436,22.60402,10.66772,26.47874,12.60721
		c3.87473,1.94037,6.45822,2.90991,7.42653,4.52647C235.48701,193.69046,235.48701,201.44902,232.25865,210.5022z"/>
	<path class="st1" d="M227.09175,187.54832c-3.87486-1.93948-22.92633-11.31285-26.47874-12.60721
		c-3.55167-1.2928-6.13503-1.93874-8.7184,1.93924c-2.58286,3.87891-10.00926,12.60834-12.27019,15.19443
		c-2.25967,2.5853-4.52048,2.91011-8.39496,0.96976c-3.87523-1.9395-16.36099-6.03105-31.16193-19.23344
		c-11.51996-10.27534-19.29684-22.96454-21.55727-26.84433c-2.26042-3.87891-0.24089-5.9758,1.69897-7.90811
		c1.74335-1.73663,3.87523-4.52647,5.81272-6.78896c1.93749-2.26236,2.58298-3.87971,3.87498-6.4642
		c1.2915-2.58704,0.64587-4.84953-0.32318-6.78889c-0.96881-1.93942-8.71827-21.01364-11.94738-28.77314
		c-3.14569-7.55489-6.34013-6.53178-8.71851-6.65192c-2.25781-0.11215-4.84391-0.13615-7.42702-0.13615
		c-2.58324,0-6.7814,0.96968-10.33345,4.84865c-3.55179,3.87978-13.56218,13.25496-13.56218,32.32718
		c0,19.07417,13.88512,37.49976,15.82273,40.08605c1.93737,2.58705,27.32436,41.72643,66.19659,58.51141
		c9.24519,3.99281,16.46362,6.37704,22.09081,8.16255c9.2831,2.95018,17.73055,2.53374,24.40746,1.53549
		c7.44498-1.11194,22.92621-9.37329,26.15581-18.42455c3.22836-9.05316,3.22836-16.81174,2.25955-18.42741
		C233.54984,190.45824,230.96648,189.48869,227.09175,187.54832z"/>
</g>
</svg>
